<svg xmlns="http://www.w3.org/2000/svg" width="39" height="39.002" viewBox="0 0 39 39.002">
  <path id="comment-alt-dots" d="M34.125-34.125H4.875A4.88,4.88,0,0,0,0-29.25V-7.312A4.88,4.88,0,0,0,4.875-2.437h7.312v6.4a.916.916,0,0,0,1.455.739l9.514-7.137H34.125A4.88,4.88,0,0,0,39-7.312V-29.25A4.88,4.88,0,0,0,34.125-34.125ZM9.75-15.844a2.435,2.435,0,0,1-2.437-2.437A2.435,2.435,0,0,1,9.75-20.719a2.435,2.435,0,0,1,2.437,2.437A2.435,2.435,0,0,1,9.75-15.844Zm9.75,0a2.435,2.435,0,0,1-2.437-2.437A2.435,2.435,0,0,1,19.5-20.719a2.435,2.435,0,0,1,2.437,2.437A2.435,2.435,0,0,1,19.5-15.844Zm9.75,0a2.435,2.435,0,0,1-2.437-2.437,2.435,2.435,0,0,1,2.437-2.437,2.435,2.435,0,0,1,2.437,2.437A2.435,2.435,0,0,1,29.25-15.844Z" transform="translate(0 34.125)" fill="#11c4e0"/>
</svg>
