<svg width="198" height="43" viewBox="0 0 198 43" fill="none" xmlns="http://www.w3.org/2000/svg">
<g clip-path="url(#clip0_222_58)">
<path d="M23.414 38.232H6.02863C4.69471 38.2317 3.4155 37.6945 2.47228 36.7384C1.52906 35.7823 0.999043 34.4856 0.998779 33.1335V5.11257C0.998512 3.75899 1.52791 2.46057 2.47085 1.50212C3.41379 0.543675 4.69327 0.00346795 6.02863 0H33.3464C34.6803 0.000267085 35.9596 0.537511 36.9028 1.4936C37.846 2.44969 38.376 3.74635 38.3763 5.09847V20.3495C38.3763 20.6467 38.2598 20.9316 38.0526 21.1417C37.8453 21.3518 37.5642 21.4698 37.2711 21.4698C36.978 21.4698 36.6969 21.3518 36.4897 21.1417C36.2824 20.9316 36.166 20.6467 36.166 20.3495V5.11257C36.1636 4.35158 35.8643 3.62243 35.3335 3.08433C34.8026 2.54622 34.0833 2.24286 33.3325 2.24046H6.02863C5.27788 2.24286 4.55855 2.54622 4.02768 3.08433C3.49682 3.62243 3.19753 4.35158 3.19517 5.11257V33.1335C3.19753 33.8945 3.49682 34.6236 4.02768 35.1617C4.55855 35.6998 5.27788 36.0032 6.02863 36.0056H23.414C23.707 36.0059 23.9879 36.124 24.1951 36.334C24.4023 36.544 24.5188 36.8288 24.5191 37.1258C24.5189 37.2722 24.49 37.4171 24.4342 37.5521C24.3784 37.6871 24.2967 37.8096 24.194 37.9124C24.0912 38.0153 23.9694 38.0964 23.8355 38.1513C23.7016 38.2061 23.5583 38.2336 23.414 38.232V38.232Z" fill="white"/>
<path d="M31.4474 42.9999C31.2914 42.9999 31.1354 42.9858 30.9803 42.9707C29.1666 42.7843 27.9342 41.4918 26.9423 40.4572C26.829 40.3282 26.7018 40.2134 26.5885 40.0835L17.5068 30.8778C16.8362 30.2925 16.2949 29.5704 15.9181 28.7587C15.5414 27.9471 15.3377 27.064 15.3203 26.1672C15.3823 24.9009 15.9318 23.7098 16.8508 22.8498L18.919 20.7534C19.3075 20.3208 19.7796 19.9738 20.3061 19.7342C20.8325 19.4945 21.402 19.3672 21.9791 19.3602C23.1485 19.4163 24.2551 19.9132 25.0818 20.7534L27.972 23.6829C28.8932 24.6168 30.8481 25.8378 32.2365 24.4445C33.6816 23.008 35.1415 21.515 36.5439 20.0784C37.3389 19.2725 38.1171 18.4666 38.9102 17.6607C39.0117 17.5533 39.1333 17.4675 39.268 17.4083C39.4026 17.3492 39.5476 17.3179 39.6943 17.3163C39.841 17.3147 39.9866 17.3428 40.1225 17.399C40.2583 17.4552 40.3817 17.5383 40.4855 17.6435C40.5893 17.7487 40.6713 17.8738 40.7267 18.0115C40.7821 18.1492 40.8098 18.2968 40.8083 18.4455C40.8067 18.5942 40.7758 18.7411 40.7175 18.8776C40.6592 19.0141 40.5745 19.1374 40.4686 19.2403C39.6735 20.0462 38.8953 20.834 38.1161 21.6389C36.6989 23.0755 35.2399 24.5684 33.7949 26.0191C31.4991 28.3029 28.3685 27.2108 26.4126 25.2434L23.4937 22.2846C23.0743 21.8743 22.5296 21.621 21.9493 21.5664C21.6703 21.5844 21.3977 21.6584 21.1473 21.7842C20.8968 21.9099 20.6735 22.0848 20.4903 22.2987L18.3038 24.515C17.8318 24.9837 17.5485 25.6135 17.5088 26.282C17.5491 26.8636 17.7056 27.4308 17.9687 27.9493C18.2318 28.4678 18.596 28.9267 19.0393 29.2982L28.121 38.5048C28.2482 38.6338 28.3764 38.7637 28.4897 38.8927C29.1589 39.7966 30.1063 40.4486 31.1821 40.7453C31.7427 40.7408 32.2957 40.6123 32.8022 40.3687C33.3088 40.1251 33.7568 39.7723 34.1149 39.3349L50.891 22.33C51.6702 21.5402 52.35 20.8511 52.3927 19.9747C52.3158 18.9518 51.8419 18.0015 51.0749 17.3323L48.4392 14.6606C48.2398 14.4497 48.1299 14.1679 48.133 13.8758C48.1361 13.5837 48.252 13.3044 48.4558 13.0978C48.6596 12.8912 48.9351 12.7738 49.2233 12.7707C49.5115 12.7675 49.7894 12.8789 49.9975 13.081L52.6332 15.7526C53.2473 16.2916 53.7408 16.9574 54.0805 17.7053C54.4202 18.4532 54.5984 19.2661 54.603 20.0895C54.3993 21.6014 53.6278 22.9753 52.4493 23.9247L35.6981 40.9176C34.6089 42.1545 33.0803 42.9034 31.4474 42.9999Z" fill="white"/>
<path d="M43.3925 16.5887C43.9875 16.5887 44.4698 16.0998 44.4698 15.4967C44.4698 14.8936 43.9875 14.4047 43.3925 14.4047C42.7975 14.4047 42.3152 14.8936 42.3152 15.4967C42.3152 16.0998 42.7975 16.5887 43.3925 16.5887Z" fill="white"/>
<path d="M71.3787 7.66925C71.8875 7.66396 72.3954 7.71223 72.8943 7.81331C73.3214 7.90186 73.7391 8.03174 74.1416 8.20116L73.0643 11.6485C72.8657 11.5485 72.6567 11.4715 72.4412 11.4188C72.1717 11.3562 71.8957 11.3271 71.6193 11.3322C71.3715 11.3204 71.1243 11.3631 70.8944 11.4573C70.6645 11.5516 70.4575 11.6952 70.2875 11.8782C69.9355 12.3023 69.7576 12.8472 69.7906 13.4004V14.578H73.3326V17.8813H69.7886V29.0111H65.9772V17.8803H63.428V14.577H65.9782V13.1667C65.9617 12.3677 66.0967 11.5729 66.3757 10.8254C66.6158 10.1759 66.9984 9.5903 67.4948 9.11286C67.9877 8.64244 68.5715 8.28058 69.2092 8.05005C69.9005 7.77946 70.6379 7.65005 71.3787 7.66925V7.66925Z" fill="white"/>
<path d="M81.7498 14.0746C82.7881 14.0598 83.819 14.255 84.782 14.6489C85.6757 15.0121 86.4872 15.5559 87.1669 16.2473C87.8466 16.9387 88.3803 17.7632 88.7355 18.6704C89.4912 20.6576 89.4912 22.8586 88.7355 24.8458C88.3775 25.7535 87.8427 26.5789 87.1632 27.2726C86.4801 27.9587 85.6693 28.5004 84.778 28.8663C82.8278 29.6319 80.6658 29.6319 78.7155 28.8663C77.8217 28.5032 77.0103 27.9593 76.3306 27.2679C75.6509 26.5765 75.1172 25.7521 74.7621 24.8448C74.0064 22.8576 74.0064 20.6566 74.7621 18.6694C75.1201 17.7617 75.6548 16.9364 76.3343 16.2426C77.0174 15.5562 77.8282 15.0142 78.7195 14.6479C79.684 14.2614 80.7128 14.0668 81.7498 14.0746ZM81.7498 25.8804C82.2303 25.8829 82.7067 25.7902 83.1521 25.6074C83.6009 25.4196 84.0098 25.1459 84.3566 24.8015C84.715 24.4322 84.9948 23.9923 85.1786 23.509C85.389 22.9546 85.4948 22.3652 85.4906 21.7712C85.5018 21.1767 85.3957 20.5858 85.1786 20.0334C84.9964 19.5492 84.7165 19.109 84.3566 18.7409C84.0136 18.3918 83.6037 18.1175 83.1521 17.935C82.7067 17.7522 82.2303 17.6595 81.7498 17.662C81.2663 17.6555 80.7864 17.7475 80.3386 17.9325C79.8908 18.1175 79.4842 18.3917 79.1429 18.7389C78.7845 19.1081 78.5047 19.548 78.321 20.0314C78.1104 20.5857 78.0045 21.1752 78.0089 21.7692C77.9976 22.3637 78.1037 22.9546 78.321 23.507C78.4964 23.9776 78.7656 24.4066 79.1116 24.7673C79.4577 25.1279 79.8733 25.4125 80.3325 25.6034C80.7817 25.7916 81.2638 25.8858 81.7498 25.8804V25.8804Z" fill="white"/>
<path d="M91.4546 14.5493H95.0254V16.546H95.2521C95.4317 16.1854 95.6665 15.8559 95.9478 15.5698C96.2424 15.2734 96.5702 15.013 96.9247 14.7941C97.2899 14.5713 97.6799 14.3931 98.0865 14.2632C98.4849 14.1334 98.9004 14.0655 99.3188 14.0617C99.7546 14.0546 100.189 14.1078 100.611 14.2199C100.938 14.3139 101.249 14.4594 101.532 14.651L100.511 18.0984C100.269 17.9754 100.012 17.8837 99.7462 17.8254C99.4066 17.7499 99.0592 17.716 98.7116 17.7246C98.2319 17.7174 97.7568 17.821 97.3224 18.0275C96.8879 18.234 96.5055 18.5379 96.2042 18.9164C95.8926 19.3088 95.6566 19.7572 95.5085 20.2381C95.3391 20.7664 95.2575 21.3197 95.267 21.8751V28.9844H91.4546V14.5493Z" fill="white"/>
<path d="M103.271 14.549H106.842V16.4308H107.068C107.52 15.7134 108.144 15.1241 108.882 14.7182C109.66 14.2856 110.534 14.0639 111.421 14.0745C112.387 14.0422 113.34 14.3078 114.155 14.8361C114.847 15.2957 115.394 15.9495 115.727 16.7179C116.204 15.9551 116.851 15.3159 117.615 14.8512C118.509 14.3114 119.536 14.0422 120.576 14.0755C121.353 14.0577 122.125 14.2045 122.843 14.5067C123.457 14.7724 124.002 15.1806 124.433 15.6984C124.865 16.2425 125.187 16.8671 125.382 17.5369C125.603 18.2969 125.713 19.0858 125.708 19.8781V28.9689H121.897V20.5813C121.897 18.6139 121.102 17.6367 119.511 17.6367C119.045 17.6259 118.584 17.745 118.18 17.9812C117.792 18.2127 117.459 18.5261 117.202 18.8999C116.921 19.3145 116.714 19.7764 116.592 20.264C116.447 20.8228 116.376 21.3987 116.38 21.9766V28.9841H112.568V20.5964C112.568 18.629 111.733 17.6518 110.075 17.6518C109.626 17.6428 109.184 17.7622 108.8 17.9963C108.425 18.2295 108.106 18.5431 107.865 18.9151C107.599 19.3345 107.403 19.7953 107.284 20.2791C107.144 20.8386 107.077 21.4144 107.085 21.9917V29.0002H103.271V14.549Z" fill="white"/>
<path d="M134.315 29.4423C133.475 29.4586 132.638 29.3375 131.836 29.0836C131.16 28.8784 130.523 28.5629 129.947 28.1497C128.958 27.441 128.197 26.4516 127.761 25.3059L131.162 23.8411C131.429 24.5166 131.887 25.0966 132.48 25.5073C133.028 25.8681 133.668 26.058 134.321 26.0533C134.899 26.0822 135.473 25.9479 135.979 25.6655C136.153 25.582 136.301 25.4526 136.408 25.2909C136.515 25.1292 136.578 24.9412 136.588 24.7467C136.59 24.5559 136.544 24.3678 136.455 24.1998C136.365 24.0317 136.236 23.8889 136.078 23.7847C135.535 23.4618 134.941 23.2381 134.321 23.1238L132.324 22.6785C131.851 22.5683 131.39 22.4097 130.949 22.2051C130.481 21.9977 130.046 21.7217 129.657 21.386C129.265 21.0467 128.938 20.6369 128.693 20.1772C128.429 19.6684 128.298 19.0997 128.311 18.525C128.301 17.8688 128.457 17.2209 128.764 16.6432C129.064 16.0893 129.486 15.6127 129.996 15.2499C130.553 14.8477 131.177 14.5508 131.839 14.3735C132.583 14.1626 133.352 14.0562 134.125 14.0572C135.379 14.0367 136.621 14.3126 137.752 14.8631C138.815 15.4068 139.649 16.3191 140.105 17.434L136.817 18.7839C136.575 18.2428 136.153 17.8054 135.624 17.5488C135.136 17.299 134.598 17.1663 134.051 17.161C133.557 17.1487 133.068 17.2674 132.634 17.5055C132.462 17.5759 132.314 17.6943 132.206 17.8467C132.098 17.9992 132.035 18.1796 132.025 18.3669C132.026 18.5341 132.075 18.6973 132.166 18.8373C132.256 18.9772 132.384 19.088 132.534 19.1567C132.968 19.3931 133.43 19.5716 133.909 19.6876L136.095 20.2185C137.319 20.4523 138.448 21.043 139.345 21.918C140.041 22.6611 140.422 23.6508 140.408 24.6752C140.41 25.3013 140.259 25.9181 139.968 26.4704C139.665 27.0582 139.246 27.5764 138.736 27.9926C138.164 28.4539 137.517 28.8089 136.823 29.0413C136.017 29.3251 135.168 29.4609 134.315 29.4423V29.4423Z" fill="white"/>
<path d="M144.998 28.9831C144.332 28.9932 143.688 28.7349 143.21 28.2648C142.972 28.0416 142.784 27.7702 142.657 27.4684C142.53 27.1665 142.467 26.841 142.473 26.5129C142.468 26.1869 142.53 25.8635 142.657 25.5639C142.784 25.2644 142.972 24.9955 143.21 24.7751C143.447 24.5442 143.728 24.363 144.035 24.242C144.342 24.121 144.669 24.0626 144.998 24.07C145.325 24.0617 145.65 24.1198 145.954 24.2409C146.259 24.362 146.536 24.5437 146.769 24.7751C147.003 24.9973 147.189 25.2668 147.313 25.5661C147.437 25.8655 147.498 26.1881 147.492 26.5129C147.496 26.8394 147.433 27.1632 147.309 27.4644C147.185 27.7657 147.001 28.038 146.769 28.2648C146.537 28.4991 146.26 28.6835 145.956 28.807C145.652 28.9304 145.326 28.9903 144.998 28.9831V28.9831Z" fill="white"/>
<path d="M159.295 27.4452H159.068C158.615 28.007 158.068 28.4843 157.453 28.8556C156.715 29.2757 155.876 29.4797 155.03 29.4449C154.318 29.4477 153.611 29.3211 152.943 29.0712C152.319 28.8414 151.742 28.4956 151.243 28.0517C150.756 27.6203 150.369 27.0859 150.109 26.4862C149.833 25.8579 149.693 25.1771 149.698 24.4895C149.684 23.792 149.834 23.101 150.138 22.4747C150.423 21.8713 150.84 21.341 151.356 20.9233C151.903 20.4787 152.528 20.1425 153.198 19.932C153.945 19.696 154.724 19.5798 155.507 19.5875C156.278 19.5711 157.048 19.6434 157.803 19.8031C158.31 19.921 158.808 20.0745 159.294 20.2624V19.8172C159.3 19.4512 159.221 19.089 159.063 18.7597C158.905 18.4303 158.674 18.1432 158.386 17.9212C157.753 17.4083 156.959 17.1433 156.148 17.1747C155.5 17.1726 154.861 17.3233 154.281 17.6149C153.7 17.9066 153.195 18.3312 152.804 18.8551L150.041 16.941C150.774 15.9975 151.718 15.2438 152.794 14.7418C153.87 14.2399 155.049 14.0041 156.233 14.0538C158.054 13.9279 159.856 14.4907 161.291 15.6334C161.9 16.2359 162.371 16.9657 162.672 17.7718C162.973 18.578 163.096 19.4411 163.034 20.3007V28.9694H159.293L159.295 27.4452ZM159.295 23.1225C158.853 22.908 158.393 22.735 157.92 22.6057C157.411 22.475 156.887 22.4124 156.362 22.4193C155.611 22.3719 154.866 22.5851 154.25 23.0237C154.02 23.1964 153.833 23.4217 153.705 23.6813C153.577 23.9409 153.512 24.2275 153.514 24.5177C153.507 24.794 153.568 25.0677 153.691 25.314C153.815 25.5603 153.998 25.7714 154.222 25.9281C154.696 26.286 155.275 26.4729 155.866 26.459C156.344 26.4674 156.818 26.3744 157.258 26.186C157.664 26.014 158.035 25.7655 158.351 25.4536C158.652 25.1516 158.889 24.7898 159.046 24.3908C159.211 23.9903 159.296 23.5605 159.295 23.1265V23.1225Z" fill="white"/>
<path d="M165.94 14.5485H169.511V16.2903H169.737C170.138 15.6348 170.699 15.0954 171.366 14.7248C172.206 14.2679 173.149 14.0447 174.101 14.0781C174.997 14.073 175.882 14.2691 176.694 14.6523C177.515 15.0396 178.257 15.5803 178.881 16.246C179.526 16.9533 180.035 17.7763 180.383 18.6729C181.119 20.6636 181.119 22.8575 180.383 24.8482C180.044 25.7493 179.534 26.5739 178.881 27.2751C178.26 27.9443 177.518 28.4858 176.694 28.8698C175.882 29.253 174.997 29.4491 174.101 29.444C173.149 29.4774 172.206 29.2542 171.366 28.7973C170.696 28.4309 170.134 27.8906 169.737 27.2318H169.511L169.737 29.2858V35.3182H165.926V14.5485H165.94ZM173.322 25.8798C173.813 25.8803 174.3 25.7828 174.753 25.5927C175.2 25.3946 175.608 25.1173 175.958 24.7737C176.316 24.4014 176.6 23.9625 176.794 23.4812C177.228 22.3843 177.228 21.1599 176.794 20.0631C176.601 19.5808 176.317 19.1417 175.958 18.7706C175.615 18.4177 175.205 18.1391 174.753 17.9516C174.301 17.7561 173.814 17.6583 173.322 17.6644C172.833 17.6662 172.348 17.7587 171.891 17.9375C171.442 18.1254 171.033 18.399 170.687 18.7434C170.328 19.1156 170.045 19.5545 169.851 20.0359C169.629 20.5872 169.518 21.1781 169.525 21.7736C169.511 22.3698 169.622 22.9621 169.851 23.5114C170.043 23.9937 170.327 24.4329 170.687 24.8039C171.03 25.153 171.439 25.4273 171.891 25.6098C172.346 25.7956 172.832 25.8874 173.322 25.8798V25.8798Z" fill="white"/>
<path d="M182.957 14.5485H186.527V16.2903H186.754C187.155 15.6347 187.716 15.0954 188.384 14.7248C189.223 14.268 190.166 14.0448 191.118 14.0781C192.014 14.073 192.899 14.2691 193.711 14.6523C194.532 15.0397 195.274 15.5803 195.897 16.246C196.543 16.9532 197.052 17.7762 197.399 18.6728C198.136 20.6635 198.136 22.8575 197.399 24.8482C197.061 25.7493 196.55 26.5739 195.897 27.2751C195.277 27.9443 194.534 28.4858 193.711 28.8698C192.899 29.253 192.014 29.4491 191.118 29.444C190.166 29.4773 189.223 29.2541 188.384 28.7972C187.713 28.4309 187.151 27.8906 186.754 27.2317H186.527L186.754 29.2858V35.3182H182.943V14.5485H182.957ZM190.339 25.8798C190.83 25.8803 191.316 25.7828 191.77 25.5927C192.216 25.3946 192.624 25.1173 192.974 24.7737C193.332 24.4013 193.616 23.9625 193.81 23.4812C194.244 22.3842 194.244 21.16 193.81 20.0631C193.618 19.5808 193.334 19.1416 192.974 18.7706C192.632 18.4177 192.222 18.139 191.77 17.9515C191.318 17.756 190.83 17.6583 190.339 17.6644C189.849 17.6661 189.364 17.7587 188.908 17.9374C188.459 18.1254 188.05 18.399 187.703 18.7434C187.345 19.1155 187.061 19.5544 186.867 20.0359C186.645 20.5873 186.534 21.1781 186.541 21.7736C186.528 22.3697 186.639 22.962 186.867 23.5114C187.059 23.9937 187.343 24.4329 187.703 24.8039C188.046 25.153 188.456 25.4273 188.908 25.6098C189.363 25.7944 189.849 25.8861 190.339 25.8798Z" fill="white"/>
</g>
<defs>
<clipPath id="clip0_222_58">
<rect width="197.946" height="42.684" fill="white"/>
</clipPath>
</defs>
</svg>
