<svg xmlns="http://www.w3.org/2000/svg" width="37.781" height="37.781" viewBox="0 0 37.781 37.781">
  <path id="life-ring" d="M19.5-33.516A18.891,18.891,0,0,0,.609-14.625,18.891,18.891,0,0,0,19.5,4.266,18.891,18.891,0,0,0,38.391-14.625,18.891,18.891,0,0,0,19.5-33.516Zm13.231,9.107L27.9-19.579a9.859,9.859,0,0,0-3.447-3.447l4.829-4.829A16.539,16.539,0,0,1,32.731-24.409ZM19.5-7.312a7.313,7.313,0,0,1-7.312-7.312A7.313,7.313,0,0,1,19.5-21.937a7.313,7.313,0,0,1,7.312,7.312A7.313,7.313,0,0,1,19.5-7.312ZM9.716-27.856l4.829,4.829A9.859,9.859,0,0,0,11.1-19.579L6.269-24.409A16.539,16.539,0,0,1,9.716-27.856ZM6.269-4.841,11.1-9.671a9.859,9.859,0,0,0,3.447,3.447L9.716-1.394A16.539,16.539,0,0,1,6.269-4.841ZM29.284-1.394,24.454-6.223A9.859,9.859,0,0,0,27.9-9.671l4.829,4.829A16.539,16.539,0,0,1,29.284-1.394Z" transform="translate(-0.609 33.516)" fill="#11c4e0"/>
</svg>
