<svg width="128" height="18" viewBox="0 0 128 18" fill="none" xmlns="http://www.w3.org/2000/svg">
<path d="M11.878 5.01367L16.6261 5.71094C17.0245 5.77734 17.3565 6.04297 17.4894 6.44141C17.6222 6.80664 17.5226 7.23828 17.2237 7.50391L13.7706 10.9238L14.6007 15.7715C14.6671 16.1699 14.5011 16.5684 14.169 16.8008C13.837 17.0664 13.4054 17.0664 13.0401 16.9004L8.79014 14.6094L4.50694 16.9004C4.17491 17.0664 3.71006 17.0664 3.41123 16.8008C3.0792 16.5684 2.91319 16.1699 2.97959 15.7715L3.77647 10.9238L0.323344 7.50391C0.0245157 7.23828 -0.0750937 6.80664 0.0577188 6.44141C0.190531 6.04297 0.522563 5.77734 0.921 5.71094L5.70225 5.01367L7.82725 0.597656C7.99327 0.232422 8.3585 0 8.79014 0C9.18858 0 9.55381 0.232422 9.71983 0.597656L11.878 5.01367Z" fill="#F8DA27"/>
<path d="M37.878 5.01367L42.6261 5.71094C43.0245 5.77734 43.3565 6.04297 43.4894 6.44141C43.6222 6.80664 43.5226 7.23828 43.2237 7.50391L39.7706 10.9238L40.6007 15.7715C40.6671 16.1699 40.5011 16.5684 40.169 16.8008C39.837 17.0664 39.4054 17.0664 39.0401 16.9004L34.7901 14.6094L30.5069 16.9004C30.1749 17.0664 29.7101 17.0664 29.4112 16.8008C29.0792 16.5684 28.9132 16.1699 28.9796 15.7715L29.7765 10.9238L26.3233 7.50391C26.0245 7.23828 25.9249 6.80664 26.0577 6.44141C26.1905 6.04297 26.5226 5.77734 26.921 5.71094L31.7022 5.01367L33.8273 0.597656C33.9933 0.232422 34.3585 0 34.7901 0C35.1886 0 35.5538 0.232422 35.7198 0.597656L37.878 5.01367Z" fill="#F8DA27"/>
<path d="M65.878 5.01367L70.6261 5.71094C71.0245 5.77734 71.3565 6.04297 71.4894 6.44141C71.6222 6.80664 71.5226 7.23828 71.2237 7.50391L67.7706 10.9238L68.6007 15.7715C68.6671 16.1699 68.5011 16.5684 68.169 16.8008C67.837 17.0664 67.4054 17.0664 67.0401 16.9004L62.7901 14.6094L58.5069 16.9004C58.1749 17.0664 57.7101 17.0664 57.4112 16.8008C57.0792 16.5684 56.9132 16.1699 56.9796 15.7715L57.7765 10.9238L54.3233 7.50391C54.0245 7.23828 53.9249 6.80664 54.0577 6.44141C54.1905 6.04297 54.5226 5.77734 54.921 5.71094L59.7023 5.01367L61.8273 0.597656C61.9933 0.232422 62.3585 0 62.7901 0C63.1886 0 63.5538 0.232422 63.7198 0.597656L65.878 5.01367Z" fill="#F8DA27"/>
<path d="M93.878 5.01367L98.6261 5.71094C99.0245 5.77734 99.3565 6.04297 99.4894 6.44141C99.6222 6.80664 99.5226 7.23828 99.2237 7.50391L95.7706 10.9238L96.6007 15.7715C96.6671 16.1699 96.5011 16.5684 96.169 16.8008C95.837 17.0664 95.4054 17.0664 95.0401 16.9004L90.7901 14.6094L86.5069 16.9004C86.1749 17.0664 85.7101 17.0664 85.4112 16.8008C85.0792 16.5684 84.9132 16.1699 84.9796 15.7715L85.7765 10.9238L82.3233 7.50391C82.0245 7.23828 81.9249 6.80664 82.0577 6.44141C82.1905 6.04297 82.5226 5.77734 82.921 5.71094L87.7022 5.01367L89.8272 0.597656C89.9933 0.232422 90.3585 0 90.7901 0C91.1886 0 91.5538 0.232422 91.7198 0.597656L93.878 5.01367Z" fill="#F8DA27"/>
<path d="M121.878 5.01367L126.626 5.71094C127.025 5.77734 127.357 6.04297 127.489 6.44141C127.622 6.80664 127.523 7.23828 127.224 7.50391L123.771 10.9238L124.601 15.7715C124.667 16.1699 124.501 16.5684 124.169 16.8008C123.837 17.0664 123.405 17.0664 123.04 16.9004L118.79 14.6094L114.507 16.9004C114.175 17.0664 113.71 17.0664 113.411 16.8008C113.079 16.5684 112.913 16.1699 112.98 15.7715L113.776 10.9238L110.323 7.50391C110.025 7.23828 109.925 6.80664 110.058 6.44141C110.191 6.04297 110.523 5.77734 110.921 5.71094L115.702 5.01367L117.827 0.597656C117.993 0.232422 118.358 0 118.79 0C119.189 0 119.554 0.232422 119.72 0.597656L121.878 5.01367Z" fill="#F8DA27"/>
</svg>
