<svg xmlns="http://www.w3.org/2000/svg" width="39" height="39" viewBox="0 0 39 39">
  <path id="badge-check" d="M39-14.625A6.7,6.7,0,0,0,34.651-20.9a6.7,6.7,0,0,0-1.364-7.51,6.7,6.7,0,0,0-7.51-1.364A6.7,6.7,0,0,0,19.5-34.125a6.7,6.7,0,0,0-6.277,4.349,6.7,6.7,0,0,0-7.51,1.364A6.7,6.7,0,0,0,4.349-20.9,6.7,6.7,0,0,0,0-14.625,6.7,6.7,0,0,0,4.349-8.348,6.7,6.7,0,0,0,5.713-.838,6.7,6.7,0,0,0,13.223.526,6.711,6.711,0,0,0,19.5,4.875,6.7,6.7,0,0,0,25.777.526a6.7,6.7,0,0,0,7.51-1.364,6.7,6.7,0,0,0,1.364-7.51A6.7,6.7,0,0,0,39-14.625ZM27.97-18l-9.982,9.9a.837.837,0,0,1-1.184,0l-5.768-5.814a.838.838,0,0,1,0-1.185l1.983-1.967a.838.838,0,0,1,1.185,0l3.211,3.236,7.4-7.344a.837.837,0,0,1,1.185,0l1.967,1.983A.838.838,0,0,1,27.97-18Z" transform="translate(0 34.125)" fill="#11c4e0"/>
</svg>
